<?xml version="1.0" encoding="UTF-8"?>
<svg id="Camada_2" data-name="Camada 2" xmlns="http://www.w3.org/2000/svg" viewBox="0 0 17.22 14.88">
  <defs>
    <style>
      .cls-1 {
        fill: #a06016;
      }
    </style>
  </defs>
  <g id="FACA">
    <g>
      <path class="cls-1" d="M9.33,10.96c-.16,0-.29-.13-.29-.29s.13-.29.29-.29c1.41,0,2.56-1.15,2.56-2.57,0-1.41-1.15-2.56-2.56-2.56h0c-1.08,0-2.05.69-2.41,1.7-.05.15-.22.22-.37.17-.15-.05-.23-.22-.17-.37.44-1.24,1.63-2.08,2.95-2.08h0c1.73,0,3.13,1.4,3.14,3.13,0,1.73-1.4,3.14-3.13,3.14h0Z"/>
      <path class="cls-1" d="M9.31,3.98c-.16,0-.29-.13-.29-.29V.29c0-.16.12-.29.28-.29h0c.16,0,.29.13.29.29v3.4c0,.16-.12.29-.28.29h0Z"/>
      <path class="cls-1" d="M9.33,14.54c-.16,0-.29-.13-.29-.29v-2.34c0-.16.12-.29.28-.29h0c.16,0,.29.13.29.29v2.34c0,.16-.12.29-.28.29h0Z"/>
      <path class="cls-1" d="M14.46,12.2c-.06,0-.13-.02-.18-.06l-1.81-1.48c-.12-.1-.14-.28-.04-.4.1-.12.28-.14.4-.04l1.81,1.48c.12.1.14.28.04.4-.06.07-.14.1-.22.1Z"/>
      <path class="cls-1" d="M13.41,7.22c-.14,0-.26-.1-.28-.23-.03-.16.08-.3.23-.33l2.3-.42c.15-.03.3.08.33.23.03.16-.08.3-.23.33l-2.3.42s-.03,0-.05,0Z"/>
      <path class="cls-1" d="M11.25,4.35s-.09,0-.13-.03c-.14-.07-.2-.24-.13-.38l1.04-2.09c.07-.14.24-.2.38-.13s.2.24.13.38l-1.04,2.09c-.05.1-.15.16-.26.16Z"/>
      <path class="cls-1" d="M7.54,4.35c-.1,0-.21-.06-.26-.16l-1.05-2.09c-.07-.14-.01-.31.13-.38.14-.07.31-.01.38.13l1.05,2.09c.07.14.01.31-.13.38-.04.02-.09.03-.13.03Z"/>
      <path class="cls-1" d="M6.2,5.57c-.06,0-.12-.02-.18-.06l-2.81-2.23c-.12-.1-.14-.28-.05-.4.1-.12.28-.14.4-.05l2.81,2.23c.12.1.14.28.05.4-.06.07-.14.11-.22.11Z"/>
      <path class="cls-1" d="M12.56,5.56c-.08,0-.17-.04-.22-.11-.1-.12-.08-.3.04-.4l2.75-2.24c.12-.1.3-.08.4.04.1.12.08.3-.04.4l-2.75,2.24c-.05.04-.12.06-.18.06Z"/>
      <path class="cls-1" d="M12.67,14.88c-.1,0-.2-.06-.25-.16l-1.57-3.08c-.07-.14-.02-.31.12-.38.14-.07.31-.02.38.12l1.57,3.08c.07.14.02.31-.12.38-.04.02-.09.03-.13.03Z"/>
      <path class="cls-1" d="M16.94,9.78s-.04,0-.06,0l-3.63-.81c-.15-.03-.25-.19-.22-.34.04-.15.19-.25.34-.22l3.63.81c.15.03.25.19.22.34-.03.13-.15.22-.28.22Z"/>
      <g>
        <path class="cls-1" d="M3.81,14.86C1.71,14.86,0,13.15,0,11.05c0-1.02.39-1.98,1.11-2.7s1.67-1.12,2.69-1.12h0c1.02,0,1.97.4,2.69,1.11.72.72,1.12,1.68,1.12,2.69,0,2.1-1.7,3.81-3.8,3.82h0ZM3.81,7.81h0c-.87,0-1.68.34-2.29.95-.61.61-.95,1.43-.95,2.29s.34,1.68.95,2.29c.61.61,1.42.95,2.29.95h0c1.79,0,3.24-1.46,3.23-3.24,0-.87-.34-1.68-.95-2.29-.61-.61-1.42-.94-2.29-.94Z"/>
        <path class="cls-1" d="M5.02,12.51c-.07,0-.14-.03-.2-.08l-1.2-1.18c-.05-.05-.09-.13-.09-.2v-2.26c0-.16.12-.29.28-.29h0c.16,0,.29.13.29.29v2.14s1.12,1.09,1.12,1.09c.11.11.12.29,0,.4-.06.06-.13.09-.21.09Z"/>
      </g>
    </g>
  </g>
</svg>