<?xml version="1.0" encoding="UTF-8" standalone="no"?>
<!DOCTYPE svg PUBLIC "-//W3C//DTD SVG 1.1//EN" "http://www.w3.org/Graphics/SVG/1.1/DTD/svg11.dtd">
<svg width="100%" height="100%" viewBox="0 0 334 29" version="1.1" xmlns="http://www.w3.org/2000/svg" xmlns:xlink="http://www.w3.org/1999/xlink" xml:space="preserve" xmlns:serif="http://www.serif.com/" style="fill-rule:evenodd;clip-rule:evenodd;stroke-linejoin:round;stroke-miterlimit:2;">
    <g transform="matrix(2.55135e-16,-4.16667,4.16667,2.55135e-16,64.2159,14.9971)">
        <path d="M0,3.853C-0.486,3.854 -0.881,3.468 -0.881,2.992L-0.885,0.866C-0.886,0.39 -0.492,0.003 -0.006,0.002L1.05,0.001C1.536,0 1.931,0.385 1.932,0.862L1.935,2.988C1.936,3.464 1.542,3.85 1.057,3.851L0,3.853ZM3.587,3.354L3.583,0.489C3.581,-0.374 2.863,-1.075 1.983,-1.073L-0.942,-1.069C-1.823,-1.067 -2.538,-0.364 -2.537,0.499L-2.532,3.364C-2.531,4.227 -1.813,4.928 -0.932,4.927L1.992,4.922C2.873,4.921 3.589,4.217 3.587,3.354" style="fill:rgb(153,95,35);fill-rule:nonzero;"/>
    </g>
    <g transform="matrix(2.55135e-16,-4.16667,4.16667,2.55135e-16,108.108,11.2792)">
        <path d="M0,-2.775C0.274,-2.512 0.425,-2.158 0.426,-1.778L-0.25,-1.777C-0.251,-1.971 -0.328,-2.152 -0.468,-2.287C-0.609,-2.422 -0.793,-2.492 -0.988,-2.484C-1.279,-2.472 -1.527,-2.283 -1.624,-2.022C-1.65,-1.953 -1.665,-1.879 -1.668,-1.802C-1.675,-1.607 -1.604,-1.423 -1.469,-1.283C-1.334,-1.143 -1.153,-1.066 -0.958,-1.067L1.656,-1.071L1.657,-0.395C1.612,-0.394 1.568,-0.391 1.526,-0.384C1.238,-0.337 0.999,-0.141 0.893,0.123C0.854,0.218 0.833,0.322 0.833,0.432L0.834,0.479L0.157,0.481L0.157,0.433C0.157,0.129 0.247,-0.155 0.403,-0.392L-0.957,-0.39C-1.337,-0.39 -1.691,-0.54 -1.955,-0.813C-2.207,-1.073 -2.344,-1.412 -2.344,-1.772C-2.344,-1.79 -2.344,-1.809 -2.343,-1.827C-2.336,-2.02 -2.289,-2.204 -2.209,-2.37C-1.993,-2.82 -1.54,-3.139 -1.015,-3.16C-0.635,-3.175 -0.274,-3.038 0,-2.775M-1.823,-4.383C-2.704,-4.382 -3.419,-3.679 -3.418,-2.816L-3.413,0.05C-3.412,0.913 -2.694,1.614 -1.813,1.612L1.112,1.607C1.993,1.606 2.708,0.902 2.707,0.04L2.702,-2.825C2.701,-3.689 1.983,-4.389 1.102,-4.388L-1.823,-4.383Z" style="fill:rgb(153,95,35);fill-rule:nonzero;"/>
    </g>
    <g transform="matrix(2.55135e-16,-4.16667,4.16667,2.55135e-16,74.9092,10.1242)">
        <path d="M0,-1.045L-1.29,-1.043L-0.967,-0.522L-0.644,0L-0.322,-0.523L0,-1.045Z" style="fill:rgb(153,95,35);fill-rule:nonzero;"/>
    </g>
    <g transform="matrix(-4.16666,0.00808537,0.00808537,4.16666,9.27878,12.9158)">
        <path d="M-0.773,-0.774C-0.356,-0.774 -0.016,-0.427 -0.016,-0.001C-0.016,0.426 -0.355,0.772 -0.773,0.772C-1.191,0.772 -1.53,0.425 -1.531,-0.001C-1.531,-0.428 -1.192,-0.774 -0.773,-0.774" style="fill:rgb(153,95,35);fill-rule:nonzero;"/>
    </g>
    <g transform="matrix(2.55135e-16,-4.16667,4.16667,2.55135e-16,7.64752,8.9625)">
        <path d="M0,2.33C0,2.186 0.119,2.069 0.266,2.069C0.413,2.068 0.532,2.185 0.533,2.329C0.533,2.473 0.414,2.59 0.267,2.59C0.12,2.591 0,2.474 0,2.33M-2.105,1.167C-2.106,0.541 -1.587,0.031 -0.948,0.029C-0.309,0.028 0.212,0.537 0.213,1.163C0.214,1.789 -0.305,2.299 -0.944,2.3C-1.583,2.301 -2.104,1.792 -2.105,1.167M0.925,2.218L0.921,0.106C0.921,-0.322 0.565,-0.669 0.128,-0.669L-2.027,-0.665C-2.464,-0.664 -2.818,-0.316 -2.818,0.112L-2.814,2.223C-2.813,2.651 -2.458,2.999 -2.021,2.998L0.134,2.994C0.571,2.994 0.925,2.645 0.925,2.218" style="fill:rgb(153,95,35);fill-rule:nonzero;"/>
    </g>
    <g transform="matrix(2.55135e-16,-4.16667,4.16667,2.55135e-16,3.28752,17.3804)">
        <path d="M0,4.422C-0.649,4.423 -1.178,3.906 -1.179,3.271L-1.182,1.159C-1.183,0.523 -0.656,0.005 -0.007,0.004L2.148,0C2.797,-0.001 3.326,0.516 3.327,1.152L3.331,3.263C3.332,3.899 2.804,4.417 2.155,4.419L0,4.422ZM4.137,3.709L4.132,0.703C4.13,-0.122 3.446,-0.791 2.603,-0.789L-0.465,-0.784C-1.307,-0.783 -1.99,-0.113 -1.988,0.713L-1.984,3.719C-1.982,4.545 -1.298,5.213 -0.455,5.212L2.613,5.207C3.455,5.205 4.138,4.535 4.137,3.709" style="fill:rgb(153,95,35);fill-rule:nonzero;"/>
    </g>
    <g transform="matrix(2.55135e-16,-4.16667,4.16667,2.55135e-16,36.3209,0.097921)">
        <path d="M0,2.855L-0.005,-0.01C-0.006,-0.873 -0.724,-1.574 -1.605,-1.573L-4.529,-1.568C-5.41,-1.567 -6.126,-0.863 -6.124,-0.001L-6.123,0.888L-3.965,0.885L-3.967,0.107L-3.043,0.105L-3.042,0.884L-2.233,0.882C-1.613,0.881 -1.11,1.373 -1.109,1.98L-1.107,2.746L-1.992,2.748L-1.993,2.212C-1.993,2.002 -2.167,1.832 -2.381,1.833L-3.033,1.834L-3.032,2.681L-3.948,2.547L-3.95,1.835L-6.122,1.839L-6.12,2.865C-6.118,3.728 -5.4,4.429 -4.52,4.427L-1.595,4.423C-0.714,4.421 0.001,3.718 0,2.855" style="fill:rgb(153,95,35);fill-rule:nonzero;"/>
    </g>
    <g transform="matrix(4.16666,-0.00668613,0.00668613,4.16666,-1922.41,236.345)">
        <g transform="matrix(6.91731,0,0,6.91731,536.072,-50.6189)">
            <path d="M0.636,-0.541C0.687,-0.541 0.727,-0.526 0.757,-0.497C0.786,-0.467 0.801,-0.42 0.801,-0.356L0.801,-0L0.753,-0L0.753,-0.354C0.753,-0.404 0.742,-0.44 0.719,-0.463C0.697,-0.486 0.667,-0.498 0.63,-0.498C0.58,-0.498 0.54,-0.483 0.512,-0.453C0.483,-0.424 0.469,-0.378 0.469,-0.314L0.469,-0L0.42,-0L0.42,-0.354C0.42,-0.387 0.415,-0.414 0.405,-0.435C0.395,-0.456 0.381,-0.472 0.362,-0.482C0.344,-0.492 0.323,-0.498 0.298,-0.498C0.265,-0.498 0.236,-0.491 0.212,-0.477C0.188,-0.464 0.17,-0.443 0.157,-0.415C0.144,-0.387 0.137,-0.351 0.137,-0.308L0.137,-0L0.088,-0L0.088,-0.531L0.128,-0.531L0.135,-0.444L0.138,-0.444C0.147,-0.461 0.159,-0.477 0.173,-0.492C0.188,-0.506 0.206,-0.518 0.228,-0.527C0.249,-0.536 0.275,-0.541 0.304,-0.541C0.342,-0.541 0.375,-0.532 0.401,-0.515C0.428,-0.498 0.446,-0.473 0.457,-0.439L0.46,-0.439C0.474,-0.471 0.497,-0.496 0.527,-0.514C0.557,-0.532 0.593,-0.541 0.636,-0.541Z" style="fill:rgb(153,95,35);fill-rule:nonzero;"/>
        </g>
    </g>
    <g transform="matrix(4.16666,-0.00668613,0.00668613,4.16666,-1922.41,236.345)">
        <g transform="matrix(6.91731,0,0,6.91731,528.512,-50.6189)">
            <path d="M0.301,0.01C0.248,0.01 0.204,-0.001 0.167,-0.023C0.131,-0.045 0.104,-0.077 0.085,-0.117C0.067,-0.158 0.058,-0.207 0.058,-0.263C0.058,-0.321 0.068,-0.371 0.089,-0.412C0.111,-0.454 0.14,-0.486 0.179,-0.508C0.217,-0.53 0.262,-0.541 0.314,-0.541C0.339,-0.541 0.363,-0.539 0.385,-0.534C0.407,-0.53 0.426,-0.523 0.444,-0.515L0.431,-0.472C0.412,-0.48 0.393,-0.486 0.373,-0.49C0.352,-0.494 0.332,-0.497 0.313,-0.497C0.27,-0.497 0.233,-0.487 0.202,-0.468C0.172,-0.449 0.149,-0.422 0.133,-0.387C0.116,-0.352 0.108,-0.311 0.108,-0.263C0.108,-0.219 0.115,-0.179 0.129,-0.145C0.143,-0.11 0.164,-0.083 0.192,-0.064C0.22,-0.044 0.257,-0.034 0.301,-0.034C0.326,-0.034 0.351,-0.037 0.374,-0.042C0.398,-0.047 0.419,-0.054 0.438,-0.062L0.438,-0.017C0.421,-0.009 0.401,-0.003 0.378,0.002C0.356,0.007 0.33,0.01 0.301,0.01Z" style="fill:rgb(153,95,35);fill-rule:nonzero;"/>
        </g>
        <g transform="matrix(6.91731,0,0,6.91731,531.929,-50.6189)">
            <path d="M0.528,-0.266C0.528,-0.225 0.523,-0.188 0.513,-0.154C0.503,-0.12 0.488,-0.091 0.468,-0.067C0.448,-0.042 0.424,-0.024 0.394,-0.01C0.365,0.003 0.331,0.01 0.292,0.01C0.254,0.01 0.221,0.003 0.192,-0.01C0.163,-0.023 0.139,-0.042 0.119,-0.066C0.099,-0.091 0.084,-0.12 0.073,-0.154C0.063,-0.187 0.058,-0.225 0.058,-0.266C0.058,-0.323 0.067,-0.372 0.086,-0.413C0.105,-0.455 0.133,-0.486 0.168,-0.508C0.204,-0.53 0.247,-0.541 0.296,-0.541C0.348,-0.541 0.391,-0.529 0.425,-0.506C0.459,-0.483 0.485,-0.451 0.502,-0.409C0.52,-0.368 0.528,-0.32 0.528,-0.266ZM0.108,-0.266C0.108,-0.22 0.115,-0.179 0.128,-0.144C0.142,-0.109 0.162,-0.082 0.189,-0.063C0.216,-0.043 0.251,-0.033 0.292,-0.033C0.335,-0.033 0.37,-0.043 0.397,-0.063C0.425,-0.082 0.445,-0.109 0.458,-0.145C0.471,-0.18 0.478,-0.22 0.478,-0.266C0.478,-0.311 0.471,-0.35 0.459,-0.385C0.447,-0.42 0.427,-0.448 0.4,-0.468C0.374,-0.488 0.339,-0.498 0.296,-0.498C0.234,-0.498 0.188,-0.477 0.156,-0.436C0.124,-0.395 0.108,-0.338 0.108,-0.266Z" style="fill:rgb(153,95,35);fill-rule:nonzero;"/>
        </g>
    </g>
    <g transform="matrix(4.16666,-0.00668613,0.00668613,4.16666,-1922.41,236.345)">
        <g transform="matrix(6.91731,0,0,6.91731,526.679,-50.6189)">
            <path d="M0.08,-0.035C0.08,-0.049 0.083,-0.06 0.09,-0.068C0.096,-0.075 0.106,-0.079 0.119,-0.079C0.133,-0.079 0.143,-0.075 0.149,-0.068C0.156,-0.06 0.159,-0.049 0.159,-0.035C0.159,-0.02 0.156,-0.009 0.149,-0.001C0.143,0.006 0.133,0.01 0.119,0.01C0.106,0.01 0.096,0.006 0.09,-0.001C0.083,-0.009 0.08,-0.02 0.08,-0.035Z" style="fill:rgb(153,95,35);fill-rule:nonzero;"/>
        </g>
    </g>
    <g transform="matrix(4.16666,-0.00668613,0.00668613,4.16666,-1922.41,236.345)">
        <g transform="matrix(6.91731,0,0,6.91731,522.639,-50.6189)">
            <path d="M0.273,-0.54C0.332,-0.54 0.375,-0.525 0.404,-0.496C0.433,-0.467 0.448,-0.42 0.448,-0.356L0.448,-0L0.41,-0L0.401,-0.093L0.398,-0.093C0.387,-0.073 0.373,-0.055 0.356,-0.04C0.34,-0.024 0.32,-0.012 0.297,-0.003C0.273,0.005 0.244,0.01 0.21,0.01C0.176,0.01 0.147,0.004 0.123,-0.007C0.099,-0.019 0.08,-0.035 0.067,-0.057C0.053,-0.079 0.047,-0.105 0.047,-0.137C0.047,-0.189 0.069,-0.23 0.112,-0.257C0.156,-0.285 0.219,-0.3 0.3,-0.304L0.399,-0.309L0.399,-0.347C0.399,-0.402 0.388,-0.44 0.367,-0.463C0.345,-0.486 0.313,-0.498 0.271,-0.498C0.244,-0.498 0.218,-0.495 0.193,-0.488C0.167,-0.481 0.142,-0.471 0.116,-0.458L0.1,-0.499C0.125,-0.511 0.153,-0.521 0.182,-0.528C0.211,-0.536 0.242,-0.54 0.273,-0.54ZM0.398,-0.27L0.306,-0.266C0.238,-0.263 0.187,-0.251 0.152,-0.23C0.117,-0.209 0.099,-0.178 0.099,-0.136C0.099,-0.103 0.11,-0.077 0.131,-0.059C0.152,-0.041 0.181,-0.032 0.218,-0.032C0.277,-0.032 0.321,-0.049 0.352,-0.082C0.383,-0.115 0.398,-0.16 0.398,-0.218L0.398,-0.27Z" style="fill:rgb(153,95,35);fill-rule:nonzero;"/>
        </g>
    </g>
    <g transform="matrix(4.16666,-0.00668613,0.00668613,4.16666,-1922.41,236.345)">
        <g transform="matrix(6.91731,0,0,6.91731,515.985,-50.6189)">
            <path d="M0.636,-0.541C0.687,-0.541 0.727,-0.526 0.757,-0.497C0.786,-0.467 0.801,-0.42 0.801,-0.356L0.801,-0L0.753,-0L0.753,-0.354C0.753,-0.404 0.742,-0.44 0.719,-0.463C0.697,-0.486 0.667,-0.498 0.63,-0.498C0.58,-0.498 0.54,-0.483 0.512,-0.453C0.483,-0.424 0.469,-0.378 0.469,-0.314L0.469,-0L0.42,-0L0.42,-0.354C0.42,-0.387 0.415,-0.414 0.405,-0.435C0.395,-0.456 0.381,-0.472 0.362,-0.482C0.344,-0.492 0.323,-0.498 0.298,-0.498C0.265,-0.498 0.236,-0.491 0.212,-0.477C0.188,-0.464 0.17,-0.443 0.157,-0.415C0.144,-0.387 0.137,-0.351 0.137,-0.308L0.137,-0L0.088,-0L0.088,-0.531L0.128,-0.531L0.135,-0.444L0.138,-0.444C0.147,-0.461 0.159,-0.477 0.173,-0.492C0.188,-0.506 0.206,-0.518 0.228,-0.527C0.249,-0.536 0.275,-0.541 0.304,-0.541C0.342,-0.541 0.375,-0.532 0.401,-0.515C0.428,-0.498 0.446,-0.473 0.457,-0.439L0.46,-0.439C0.474,-0.471 0.497,-0.496 0.527,-0.514C0.557,-0.532 0.593,-0.541 0.636,-0.541Z" style="fill:rgb(153,95,35);fill-rule:nonzero;"/>
        </g>
    </g>
    <g transform="matrix(4.16666,-0.00668613,0.00668613,4.16666,-1922.41,236.345)">
        <g transform="matrix(6.91731,0,0,6.91731,507.414,-50.6189)">
            <path d="M0.42,-0.139C0.42,-0.108 0.412,-0.081 0.396,-0.058C0.38,-0.036 0.357,-0.019 0.327,-0.008C0.297,0.004 0.26,0.01 0.215,0.01C0.179,0.01 0.146,0.007 0.117,-0C0.088,-0.007 0.063,-0.014 0.044,-0.024L0.044,-0.073C0.068,-0.061 0.095,-0.051 0.125,-0.043C0.155,-0.036 0.185,-0.032 0.216,-0.032C0.271,-0.032 0.31,-0.042 0.334,-0.06C0.359,-0.079 0.371,-0.104 0.371,-0.136C0.371,-0.157 0.365,-0.175 0.353,-0.189C0.341,-0.203 0.324,-0.215 0.302,-0.225C0.28,-0.235 0.253,-0.245 0.222,-0.255C0.189,-0.266 0.16,-0.277 0.135,-0.288C0.11,-0.299 0.09,-0.314 0.076,-0.332C0.061,-0.35 0.054,-0.375 0.054,-0.406C0.054,-0.448 0.071,-0.482 0.105,-0.505C0.14,-0.529 0.186,-0.541 0.243,-0.541C0.275,-0.541 0.305,-0.538 0.332,-0.532C0.36,-0.526 0.385,-0.518 0.407,-0.509L0.39,-0.467C0.369,-0.476 0.346,-0.484 0.32,-0.49C0.293,-0.496 0.267,-0.499 0.241,-0.499C0.197,-0.499 0.164,-0.491 0.139,-0.476C0.115,-0.46 0.103,-0.438 0.103,-0.408C0.103,-0.385 0.108,-0.368 0.12,-0.355C0.132,-0.342 0.149,-0.331 0.17,-0.323C0.192,-0.314 0.218,-0.304 0.248,-0.294C0.279,-0.283 0.308,-0.272 0.334,-0.26C0.36,-0.249 0.381,-0.233 0.396,-0.215C0.412,-0.196 0.42,-0.171 0.42,-0.139Z" style="fill:rgb(153,95,35);fill-rule:nonzero;"/>
        </g>
        <g transform="matrix(6.91731,0,0,6.91731,510.714,-50.6189)">
            <path d="M0.42,-0.139C0.42,-0.108 0.412,-0.081 0.396,-0.058C0.38,-0.036 0.357,-0.019 0.327,-0.008C0.297,0.004 0.26,0.01 0.215,0.01C0.179,0.01 0.146,0.007 0.117,-0C0.088,-0.007 0.063,-0.014 0.044,-0.024L0.044,-0.073C0.068,-0.061 0.095,-0.051 0.125,-0.043C0.155,-0.036 0.185,-0.032 0.216,-0.032C0.271,-0.032 0.31,-0.042 0.334,-0.06C0.359,-0.079 0.371,-0.104 0.371,-0.136C0.371,-0.157 0.365,-0.175 0.353,-0.189C0.341,-0.203 0.324,-0.215 0.302,-0.225C0.28,-0.235 0.253,-0.245 0.222,-0.255C0.189,-0.266 0.16,-0.277 0.135,-0.288C0.11,-0.299 0.09,-0.314 0.076,-0.332C0.061,-0.35 0.054,-0.375 0.054,-0.406C0.054,-0.448 0.071,-0.482 0.105,-0.505C0.14,-0.529 0.186,-0.541 0.243,-0.541C0.275,-0.541 0.305,-0.538 0.332,-0.532C0.36,-0.526 0.385,-0.518 0.407,-0.509L0.39,-0.467C0.369,-0.476 0.346,-0.484 0.32,-0.49C0.293,-0.496 0.267,-0.499 0.241,-0.499C0.197,-0.499 0.164,-0.491 0.139,-0.476C0.115,-0.46 0.103,-0.438 0.103,-0.408C0.103,-0.385 0.108,-0.368 0.12,-0.355C0.132,-0.342 0.149,-0.331 0.17,-0.323C0.192,-0.314 0.218,-0.304 0.248,-0.294C0.279,-0.283 0.308,-0.272 0.334,-0.26C0.36,-0.249 0.381,-0.233 0.396,-0.215C0.412,-0.196 0.42,-0.171 0.42,-0.139Z" style="fill:rgb(153,95,35);fill-rule:nonzero;"/>
        </g>
        <g transform="matrix(6.91731,0,0,6.91731,514.013,-50.6189)">
            <path d="M0.137,-0.531L0.137,-0L0.088,-0L0.088,-0.531L0.137,-0.531ZM0.113,-0.727C0.126,-0.727 0.135,-0.723 0.141,-0.716C0.146,-0.709 0.149,-0.699 0.149,-0.687C0.149,-0.674 0.146,-0.664 0.141,-0.657C0.135,-0.65 0.126,-0.646 0.113,-0.646C0.102,-0.646 0.093,-0.65 0.087,-0.657C0.081,-0.664 0.078,-0.674 0.078,-0.687C0.078,-0.699 0.081,-0.709 0.087,-0.716C0.093,-0.723 0.102,-0.727 0.113,-0.727Z" style="fill:rgb(153,95,35);fill-rule:nonzero;"/>
        </g>
    </g>
    <g transform="matrix(4.16666,-0.00668613,0.00668613,4.16666,-1922.41,236.345)">
        <g transform="matrix(6.91731,0,0,6.91731,502.44,-50.6189)">
            <path d="M0.299,-0.54C0.313,-0.54 0.326,-0.539 0.339,-0.538C0.351,-0.536 0.363,-0.534 0.374,-0.531L0.366,-0.485C0.355,-0.488 0.344,-0.49 0.333,-0.492C0.322,-0.493 0.31,-0.494 0.297,-0.494C0.272,-0.494 0.25,-0.489 0.23,-0.48C0.211,-0.471 0.194,-0.457 0.18,-0.439C0.167,-0.422 0.156,-0.401 0.149,-0.376C0.142,-0.351 0.138,-0.324 0.138,-0.293L0.138,-0L0.088,-0L0.088,-0.531L0.131,-0.531L0.136,-0.431L0.139,-0.431C0.147,-0.451 0.158,-0.47 0.173,-0.486C0.188,-0.503 0.206,-0.516 0.227,-0.525C0.248,-0.535 0.272,-0.54 0.299,-0.54Z" style="fill:rgb(153,95,35);fill-rule:nonzero;"/>
        </g>
        <g transform="matrix(6.91731,0,0,6.91731,505.443,-50.6189)">
            <path d="M0.137,-0.531L0.137,-0L0.088,-0L0.088,-0.531L0.137,-0.531ZM0.113,-0.727C0.126,-0.727 0.135,-0.723 0.141,-0.716C0.146,-0.709 0.149,-0.699 0.149,-0.687C0.149,-0.674 0.146,-0.664 0.141,-0.657C0.135,-0.65 0.126,-0.646 0.113,-0.646C0.102,-0.646 0.093,-0.65 0.087,-0.657C0.081,-0.664 0.078,-0.674 0.078,-0.687C0.078,-0.699 0.081,-0.709 0.087,-0.716C0.093,-0.723 0.102,-0.727 0.113,-0.727Z" style="fill:rgb(153,95,35);fill-rule:nonzero;"/>
        </g>
    </g>
    <g transform="matrix(4.16666,-0.00668613,0.00668613,4.16666,-1922.41,236.345)">
        <g transform="matrix(6.91731,0,0,6.91731,498.034,-50.6189)">
            <path d="M0.5,-0.531L0.5,-0L0.46,-0L0.453,-0.096L0.45,-0.096C0.441,-0.076 0.428,-0.058 0.412,-0.042C0.395,-0.027 0.375,-0.014 0.351,-0.004C0.326,0.005 0.299,0.01 0.267,0.01C0.226,0.01 0.192,0.003 0.164,-0.011C0.137,-0.026 0.116,-0.047 0.102,-0.076C0.088,-0.104 0.081,-0.14 0.081,-0.183L0.081,-0.531L0.13,-0.531L0.13,-0.188C0.13,-0.135 0.142,-0.096 0.166,-0.071C0.19,-0.046 0.225,-0.033 0.271,-0.033C0.311,-0.033 0.343,-0.041 0.37,-0.056C0.396,-0.071 0.417,-0.093 0.43,-0.124C0.444,-0.154 0.451,-0.192 0.451,-0.238L0.451,-0.531L0.5,-0.531Z" style="fill:rgb(153,95,35);fill-rule:nonzero;"/>
        </g>
    </g>
    <g transform="matrix(4.16666,-0.00668613,0.00668613,4.16666,-1922.41,236.345)">
        <g transform="matrix(6.91731,0,0,6.91731,493.794,-50.6189)">
            <path d="M0.323,-0.541C0.392,-0.541 0.445,-0.518 0.482,-0.472C0.52,-0.426 0.539,-0.359 0.539,-0.269C0.539,-0.209 0.53,-0.158 0.512,-0.117C0.494,-0.075 0.468,-0.044 0.435,-0.022C0.402,-0.001 0.363,0.01 0.316,0.01C0.285,0.01 0.257,0.005 0.233,-0.005C0.21,-0.014 0.19,-0.027 0.174,-0.044C0.159,-0.06 0.147,-0.078 0.138,-0.098L0.135,-0.098C0.136,-0.08 0.137,-0.06 0.137,-0.04C0.138,-0.02 0.138,-0.001 0.138,0.017L0.138,0.235L0.088,0.235L0.088,-0.531L0.129,-0.531L0.135,-0.425L0.138,-0.425C0.147,-0.445 0.159,-0.464 0.175,-0.482C0.191,-0.5 0.211,-0.514 0.236,-0.525C0.26,-0.536 0.289,-0.541 0.323,-0.541ZM0.317,-0.498C0.277,-0.498 0.244,-0.489 0.217,-0.471C0.191,-0.454 0.171,-0.429 0.158,-0.395C0.145,-0.362 0.139,-0.321 0.138,-0.273L0.138,-0.265C0.138,-0.213 0.145,-0.17 0.157,-0.135C0.17,-0.101 0.19,-0.076 0.216,-0.059C0.241,-0.042 0.274,-0.033 0.312,-0.033C0.35,-0.033 0.382,-0.042 0.408,-0.061C0.434,-0.08 0.454,-0.106 0.467,-0.142C0.481,-0.177 0.488,-0.219 0.488,-0.27C0.488,-0.344 0.474,-0.401 0.445,-0.439C0.417,-0.478 0.374,-0.498 0.317,-0.498Z" style="fill:rgb(153,95,35);fill-rule:nonzero;"/>
        </g>
    </g>
</svg>
