<?xml version="1.0" encoding="UTF-8" standalone="no"?>
<!DOCTYPE svg PUBLIC "-//W3C//DTD SVG 1.1//EN" "http://www.w3.org/Graphics/SVG/1.1/DTD/svg11.dtd">
<svg width="100%" height="100%" viewBox="0 0 302 223" version="1.1" xmlns="http://www.w3.org/2000/svg" xmlns:xlink="http://www.w3.org/1999/xlink" xml:space="preserve" xmlns:serif="http://www.serif.com/" style="fill-rule:evenodd;clip-rule:evenodd;stroke-linejoin:round;stroke-miterlimit:2;">
    <g transform="matrix(2.66667,0,0,2.66667,143.087,60.2803)">
        <path d="M0,0.042C-0.071,-0.772 -0.269,-1.559 -0.586,-2.305L-0.23,-0.82L-0.055,1.392C-0.027,1.734 0.082,2.061 0.26,2.347C0.211,2.21 0.176,2.066 0.163,1.916L0,0.042Z" style="fill:rgb(63,31,32);fill-rule:nonzero;"/>
    </g>
    <g transform="matrix(2.66667,0,0,2.66667,155.188,56.4835)">
        <path d="M0,3.34C-0.001,3.346 -0.002,3.352 -0.003,3.358C0.059,3.184 0.1,3.002 0.115,2.816L0.291,0.603L0.439,-0.018C0.3,0.464 0.207,0.96 0.163,1.466L0,3.34Z" style="fill:rgb(63,31,32);fill-rule:nonzero;"/>
    </g>
    <g transform="matrix(2.66667,0,0,2.66667,155.785,114.794)">
        <path d="M0,-6.748C-0.224,-6.494 -0.418,-6.238 -0.571,-6.025C-1.053,-4.96 -1.348,-3.256 -1.348,-3.256C-2.117,-2.394 -1.583,-1.329 -1.583,-1.329L-2.255,1.179C-2.362,1.58 -1.971,1.956 -1.447,1.956C-0.99,1.956 -0.616,1.672 -0.603,1.314L-0.515,-1.287C0.338,-1.964 0.05,-3.029 0.05,-3.029C1.568,-5.117 2.203,-8.137 2.311,-8.704C1.098,-7.777 0.45,-7.259 0,-6.748" style="fill:rgb(63,31,32);fill-rule:nonzero;"/>
    </g>
    <g transform="matrix(2.66667,0,0,2.66667,150.777,95.7768)">
        <path d="M0,11.318L-1.137,7.697C-1.137,7.697 -0.775,6.527 -1.466,5.672C-1.466,5.672 -1.805,3.066 -2.381,1.475C-2.522,1.086 -2.75,0.722 -3.042,0.389L-3.047,0.384C-3.476,-0.104 -4.085,-0.596 -5.196,-1.448C-5.17,-0.5 -4.956,3.25 -3.159,6.013C-3.159,6.013 -3.328,6.969 -2.277,7.901L-1.835,11.245L-1.788,11.734C-1.731,12.316 -1.111,12.766 -0.364,12.766C0.102,12.766 0.435,12.413 0.297,12.065L0,11.318Z" style="fill:rgb(63,31,32);fill-rule:nonzero;"/>
    </g>
    <g transform="matrix(2.66667,0,0,2.66667,144.991,75.9989)">
        <path d="M0,7.743C0.584,8.592 0.991,9.452 0.991,9.452C0.991,9.452 1.303,7.569 0.831,5.198C0.799,5.039 0.762,4.869 0.72,4.694C0.582,4.122 0.31,3.588 -0.064,3.134C-0.066,3.132 -0.068,3.13 -0.069,3.128C-0.343,2.796 -0.599,2.48 -0.833,2.185C-2.358,0.255 -3.071,-0.937 -3.373,-1.709C-3.575,-0.485 -4.112,3.456 -2.846,4.691C-1.36,6.14 -0.566,6.92 0,7.743" style="fill:rgb(63,31,32);fill-rule:nonzero;"/>
    </g>
    <g transform="matrix(2.66667,0,0,2.66667,155.665,90.8221)">
        <path d="M0,-3.374C-0.234,-3.078 -0.49,-2.762 -0.763,-2.431C-0.765,-2.429 -0.767,-2.427 -0.768,-2.425C-1.143,-1.971 -1.414,-1.437 -1.552,-0.865C-1.595,-0.689 -1.632,-0.519 -1.664,-0.361C-2.136,2.01 -1.824,3.893 -1.824,3.893C-1.824,3.893 -1.416,3.033 -0.833,2.184C-0.267,1.361 0.527,0.581 2.013,-0.868C3.279,-2.103 2.743,-6.044 2.54,-7.267C2.239,-6.495 1.525,-5.304 0,-3.374" style="fill:rgb(63,31,32);fill-rule:nonzero;"/>
    </g>
    <g transform="matrix(2.66667,0,0,2.66667,198.89,78.7637)">
        <rect x="0" y="0" width="0.001" height="0.001" style="fill:rgb(63,31,32);"/>
    </g>
    <g transform="matrix(-2.41182,-1.13765,-1.13765,2.41182,185.98,79.4311)">
        <path d="M-0.167,0.038C-0.108,0.039 -0.05,0.039 0.008,0.038" style="fill:rgb(63,31,32);fill-rule:nonzero;"/>
    </g>
    <g transform="matrix(-2.38514,-1.19257,-1.19257,2.38514,185.899,79.4963)">
        <path d="M-0.008,0.002C-0.005,0.002 -0.002,0.002 0,0.002" style="fill:rgb(63,31,32);fill-rule:nonzero;"/>
    </g>
    <g transform="matrix(2.66667,0,0,2.66667,174.451,49.8027)">
        <path d="M0,-5.431C-0.507,-5.15 -0.913,-4.717 -1.162,-4.193L-5.816,5.64C-6.038,4.722 -6.267,3.728 -6.267,3.728L-6.394,1.435C-6.55,1.778 -6.68,2.129 -6.784,2.488L-6.933,3.109L-7.109,5.321C-7.124,5.508 -7.165,5.689 -7.226,5.863C-7.276,6.372 -7.548,6.824 -7.976,7.106L-8.575,7.499C-8.824,7.663 -9.113,7.749 -9.411,7.749C-9.709,7.749 -9.998,7.663 -10.247,7.499L-10.846,7.106C-11.154,6.904 -11.379,6.612 -11.501,6.276C-11.68,5.99 -11.789,5.663 -11.816,5.321L-11.992,3.109L-12.347,1.624C-12.401,1.496 -12.459,1.369 -12.521,1.244L-12.658,3.728C-12.658,3.728 -12.887,4.722 -13.108,5.64L-17.763,-4.193C-18.011,-4.717 -18.418,-5.15 -18.925,-5.431L-42.825,-18.676C-41.857,-15.578 -39.632,-13.028 -36.692,-11.65L-19.786,-3.722L-19.057,-2.263L-31.397,-7.126C-30.854,-5.968 -29.858,-5.085 -28.644,-4.683L-18.57,-1.351L-17.945,-0.046L-29.237,-3.234C-28.294,-2.031 -26.967,-1.187 -25.477,-0.845L-17.428,1.003L-16.69,2.242L-25.547,0.569C-24.494,1.622 -23.122,2.296 -21.646,2.486L-16.272,3.177L-15.657,4.186L-20.159,3.915L-19.786,4.175C-18.873,4.808 -17.797,5.163 -16.686,5.197L-15.116,5.244L-13.25,8.127C-12.336,9.893 -9.52,13.2 -9.52,13.2C-9.522,13.231 -9.462,13.245 -9.462,13.245C-9.462,13.245 -9.403,13.231 -9.405,13.2C-9.405,13.2 -6.589,9.893 -5.675,8.127L-3.809,5.244L-2.239,5.197C-1.128,5.163 -0.051,4.808 0.861,4.175L1.234,3.915L-3.268,4.186L-2.653,3.177L2.721,2.486C4.197,2.296 5.569,1.622 6.622,0.569L-2.235,2.242L-1.497,1.003L6.552,-0.845C8.042,-1.187 9.369,-2.031 10.312,-3.234L-0.98,-0.046L-0.354,-1.351L9.719,-4.683C10.933,-5.085 11.929,-5.968 12.472,-7.126L0.132,-2.263L0.861,-3.722L17.767,-11.65C20.707,-13.028 22.932,-15.578 23.9,-18.676L0,-5.431Z" style="fill:rgb(63,31,32);fill-rule:nonzero;"/>
    </g>
    <g transform="matrix(2.66667,0,0,2.66667,207.859,24.0232)">
        <path d="M0,3.808L-0.338,4.415L3.59,3.014C5.349,2.386 6.786,1.083 7.582,-0.607L2.702,1.405C1.555,1.878 0.603,2.725 0,3.808" style="fill:rgb(63,31,32);fill-rule:nonzero;"/>
    </g>
    <g transform="matrix(2.66667,0,0,2.66667,200.701,36.6683)">
        <path d="M0,3.006L-0.243,3.333L2.573,2.664C4.337,2.245 5.878,1.177 6.89,-0.327L3,0.881C1.8,1.254 0.749,1.998 0,3.006" style="fill:rgb(63,31,32);fill-rule:nonzero;"/>
    </g>
    <g transform="matrix(2.66667,0,0,2.66667,192.483,50.2357)">
        <path d="M0,1.032L-0.783,1.707L1.87,1.286C3.008,1.106 4.045,0.528 4.796,-0.345L5.08,-0.675L2.113,-0.025C1.332,0.146 0.606,0.509 0,1.032" style="fill:rgb(63,31,32);fill-rule:nonzero;"/>
    </g>
    <g transform="matrix(2.6639,-0.121533,-0.121533,-2.6639,176.889,63.3597)">
        <path d="M-0.031,0.117L2.141,0.117C3.264,0.117 4.341,0.564 5.133,1.36L2.426,1.217C1.498,1.168 0.623,0.776 -0.031,0.117" style="fill:rgb(63,31,32);fill-rule:nonzero;"/>
    </g>
    <g transform="matrix(2.65559,0.242781,0.242781,-2.65559,163.44,68.0852)">
        <path d="M0.04,-0.215L1.995,-0.215C3.006,-0.215 3.979,0.232 4.7,1.028L2.262,0.886C1.427,0.837 0.634,0.444 0.04,-0.215" style="fill:rgb(63,31,32);fill-rule:nonzero;"/>
    </g>
    <g transform="matrix(2.66667,0,0,2.66667,91.4787,22.4045)">
        <path d="M0,5.022L-0.338,4.415C-0.941,3.332 -1.893,2.484 -3.04,2.012L-7.92,0C-7.124,1.69 -5.687,2.993 -3.927,3.621L0,5.022Z" style="fill:rgb(63,31,32);fill-rule:nonzero;"/>
    </g>
    <g transform="matrix(2.66667,0,0,2.66667,97.7355,36.6683)">
        <path d="M0,3.006C-0.749,1.998 -1.8,1.254 -3,0.881L-6.89,-0.327C-5.878,1.177 -4.337,2.245 -2.573,2.664L0.243,3.333L0,3.006Z" style="fill:rgb(63,31,32);fill-rule:nonzero;"/>
    </g>
    <g transform="matrix(2.66667,0,0,2.66667,105.953,50.2357)">
        <path d="M0,1.032C-0.605,0.509 -1.332,0.146 -2.113,-0.025L-5.08,-0.675L-4.796,-0.345C-4.045,0.528 -3.008,1.106 -1.87,1.286L0.783,1.707L0,1.032Z" style="fill:rgb(63,31,32);fill-rule:nonzero;"/>
    </g>
    <g transform="matrix(-2.6538,-0.261642,-0.261642,2.6538,114.329,62.2971)">
        <path d="M-0.247,-0.957L2.464,-0.957C1.547,-0.205 0.381,0.179 -0.805,0.116L-2.758,0.012C-2.071,-0.611 -1.175,-0.957 -0.247,-0.957" style="fill:rgb(63,31,32);fill-rule:nonzero;"/>
    </g>
    <g transform="matrix(-0.471935,2.62457,2.62457,0.471935,130.835,61.9868)">
        <path d="M2.232,-2.864C2.814,-1.976 2.995,-0.943 2.736,0.005L2.232,1.838C1.75,1.105 1.576,0.257 1.743,-0.54L2.232,-2.864Z" style="fill:rgb(63,31,32);fill-rule:nonzero;"/>
    </g>
    <g transform="matrix(2.66667,0,0,2.66667,143.327,47.5787)">
        <path d="M0,1.392C0.54,2.424 0.87,3.553 0.971,4.713L1.134,6.587C1.151,6.775 1.252,6.946 1.41,7.049L2.009,7.443C2.086,7.493 2.173,7.518 2.261,7.518C2.348,7.518 2.435,7.493 2.512,7.443L3.111,7.049C3.269,6.946 3.37,6.775 3.387,6.587L3.55,4.713C3.651,3.553 3.981,2.424 4.521,1.392L5.027,0.425C5.097,0.293 5.094,0.135 5.023,0.005C4.667,-0.644 4.319,-1.296 4.125,-2.01L4.046,-2.302C4.604,-2.796 4.957,-3.517 4.957,-4.321C4.957,-5.015 4.694,-5.648 4.263,-6.126C4.094,-5.824 3.904,-5.343 3.746,-4.787C3.484,-3.866 3.553,-2.92 3.553,-2.92C3.231,-3.003 2.798,-3.082 2.284,-3.085L2.261,-3.085C1.735,-3.085 1.294,-3.004 0.968,-2.92C0.98,-3.4 0.957,-4.053 0.749,-4.787C0.595,-5.332 0.409,-5.804 0.242,-6.107C-0.179,-5.631 -0.435,-5.006 -0.435,-4.321C-0.435,-3.517 -0.083,-2.796 0.475,-2.302C0.262,-1.518 -0.052,-0.766 -0.461,-0.065L-0.49,-0.017C-0.571,0.123 -0.575,0.294 -0.5,0.437L0,1.392Z" style="fill:rgb(63,31,32);fill-rule:nonzero;"/>
    </g>
    <g transform="matrix(2.66667,0,0,2.66667,149.355,22.4149)">
        <path d="M0,5.556C0.387,5.556 0.689,5.294 0.653,4.991L0.545,4.079L0.068,0.064C0.06,0 -0.06,0 -0.068,0.064L-0.552,4.139L-0.653,4.991C-0.689,5.294 -0.387,5.556 0,5.556" style="fill:rgb(63,31,32);fill-rule:nonzero;"/>
    </g>
    <g transform="matrix(2.66667,0,0,2.66667,19.5997,209.793)">
        <path d="M0,3.828C0.039,3.781 0.078,3.727 0.117,3.68C0.195,3.578 0.281,3.516 0.391,3.609C0.445,3.656 1.015,4.203 1.711,4.203C2.343,4.203 2.757,3.805 2.757,3.344C2.757,2.805 2.289,2.485 1.39,2.11C0.531,1.735 0.016,1.383 0.016,0.493C0.016,-0.038 0.438,-0.898 1.68,-0.898C2.445,-0.898 3.015,-0.499 3.015,-0.499C3.062,-0.476 3.156,-0.382 3.062,-0.234C3.031,-0.187 3,-0.132 2.968,-0.085C2.898,0.024 2.82,0.055 2.695,-0.015C2.64,-0.046 2.148,-0.374 1.672,-0.374C0.844,-0.374 0.594,0.157 0.594,0.485C0.594,1.008 0.992,1.313 1.648,1.586C2.703,2.016 3.382,2.414 3.382,3.32C3.382,4.133 2.609,4.726 1.695,4.726C0.773,4.726 0.148,4.187 0.047,4.094C-0.016,4.039 -0.094,3.977 0,3.828" style="fill:rgb(63,31,32);fill-rule:nonzero;"/>
    </g>
    <g transform="matrix(2.66667,0,0,2.66667,40.7816,212.357)">
        <path d="M0,1.828C-0.383,0.977 -0.758,0.117 -1.14,-0.734L-1.203,-0.734L-2.343,1.828L0,1.828ZM-3.71,3.484L-1.336,-1.773C-1.312,-1.82 -1.273,-1.859 -1.203,-1.859L-1.125,-1.859C-1.054,-1.859 -1.015,-1.82 -0.992,-1.773L1.367,3.484C1.414,3.586 1.351,3.687 1.234,3.687L0.922,3.687C0.851,3.687 0.805,3.64 0.789,3.601L0.211,2.312L-2.562,2.312L-3.132,3.601C-3.148,3.64 -3.195,3.687 -3.265,3.687L-3.577,3.687C-3.695,3.687 -3.757,3.586 -3.71,3.484" style="fill:rgb(63,31,32);fill-rule:nonzero;"/>
    </g>
    <g transform="matrix(2.66667,0,0,2.66667,51.0075,220.127)">
        <path d="M0,-5.515C-0.031,-5.578 0,-5.64 0.047,-5.663L1.218,-6.32C1.265,-6.351 1.383,-6.366 1.422,-6.296L1.562,-6.015C1.593,-5.952 1.578,-5.874 1.515,-5.851L0.258,-5.328C0.148,-5.281 0.109,-5.281 0.078,-5.343L0,-5.515ZM-1.273,-4.547C-1.273,-4.625 -1.203,-4.695 -1.125,-4.695L-0.828,-4.695C-0.742,-4.695 -0.68,-4.625 -0.68,-4.547L-0.68,-1.289C-0.68,-0.399 -0.125,0.296 0.789,0.296C1.711,0.296 2.273,-0.383 2.273,-1.273L2.273,-4.547C2.273,-4.625 2.335,-4.695 2.421,-4.695L2.718,-4.695C2.796,-4.695 2.867,-4.625 2.867,-4.547L2.867,-1.242C2.867,-0.055 2.023,0.851 0.789,0.851C-0.438,0.851 -1.273,-0.055 -1.273,-1.242L-1.273,-4.547Z" style="fill:rgb(63,31,32);fill-rule:nonzero;"/>
    </g>
    <g transform="matrix(2.66667,0,0,2.66667,68.6685,209.045)">
        <path d="M0,4.39C1.281,4.39 2.211,3.476 2.211,2.187C2.211,0.906 1.281,-0.008 0,-0.008L-1.172,-0.008L-1.172,4.39L0,4.39ZM-1.765,-0.391C-1.765,-0.469 -1.703,-0.539 -1.625,-0.539L0.125,-0.539C1.633,-0.539 2.867,0.687 2.867,2.187C2.867,3.703 1.633,4.929 0.125,4.929L-1.625,4.929C-1.703,4.929 -1.765,4.859 -1.765,4.781L-1.765,-0.391Z" style="fill:rgb(63,31,32);fill-rule:nonzero;"/>
    </g>
    <g transform="matrix(2.66667,0,0,2.66667,80.7683,221.795)">
        <path d="M0,-5.172C0,-5.25 0.063,-5.32 0.148,-5.32L3.226,-5.32C3.312,-5.32 3.374,-5.25 3.374,-5.172L3.374,-4.945C3.374,-4.867 3.312,-4.797 3.226,-4.797L0.602,-4.797L0.602,-2.891L2.843,-2.891C2.921,-2.891 2.992,-2.821 2.992,-2.743L2.992,-2.516C2.992,-2.43 2.921,-2.368 2.843,-2.368L0.602,-2.368L0.602,-0.376L3.226,-0.376C3.312,-0.376 3.374,-0.306 3.374,-0.227L3.374,-0.001C3.374,0.077 3.312,0.148 3.226,0.148L0.148,0.148C0.063,0.148 0,0.077 0,-0.001L0,-5.172Z" style="fill:rgb(63,31,32);fill-rule:nonzero;"/>
    </g>
    <g transform="matrix(2.66667,0,0,2.66667,105.115,214.439)">
        <path d="M0,0.344C0.64,0.344 1.187,-0.179 1.187,-0.851C1.187,-1.484 0.64,-1.968 0,-1.968L-1.242,-1.968L-1.242,0.344L0,0.344ZM-1.836,-2.413C-1.836,-2.491 -1.773,-2.562 -1.687,-2.562L0.039,-2.562C1,-2.562 1.789,-1.781 1.789,-0.835C1.789,0.133 1,0.922 0.047,0.922L-1.242,0.922L-1.242,2.758C-1.242,2.836 -1.312,2.906 -1.39,2.906L-1.687,2.906C-1.773,2.906 -1.836,2.836 -1.836,2.758L-1.836,-2.413Z" style="fill:rgb(63,31,32);fill-rule:nonzero;"/>
    </g>
    <g transform="matrix(2.66667,0,0,2.66667,113.882,221.795)">
        <path d="M0,-5.172C0,-5.25 0.063,-5.32 0.148,-5.32L3.226,-5.32C3.312,-5.32 3.374,-5.25 3.374,-5.172L3.374,-4.945C3.374,-4.867 3.312,-4.797 3.226,-4.797L0.602,-4.797L0.602,-2.891L2.843,-2.891C2.921,-2.891 2.992,-2.821 2.992,-2.743L2.992,-2.516C2.992,-2.43 2.921,-2.368 2.843,-2.368L0.602,-2.368L0.602,-0.376L3.226,-0.376C3.312,-0.376 3.374,-0.306 3.374,-0.227L3.374,-0.001C3.374,0.077 3.312,0.148 3.226,0.148L0.148,0.148C0.063,0.148 0,0.077 0,-0.001L0,-5.172Z" style="fill:rgb(63,31,32);fill-rule:nonzero;"/>
    </g>
    <g transform="matrix(2.66667,0,0,2.66667,133.148,214.691)">
        <path d="M0,0.156C0.602,0.156 1.125,-0.344 1.125,-0.984C1.125,-1.578 0.602,-2.086 0,-2.086L-1.515,-2.086L-1.515,0.156L0,0.156ZM-2.132,-2.508C-2.132,-2.586 -2.07,-2.656 -1.984,-2.656L0.039,-2.656C0.976,-2.656 1.742,-1.922 1.742,-0.992C1.742,-0.274 1.265,0.328 0.586,0.601L1.656,2.585C1.711,2.687 1.656,2.812 1.523,2.812L1.125,2.812C1.055,2.812 1.015,2.773 1,2.741L-0.039,0.672L-1.531,0.672L-1.531,2.663C-1.531,2.741 -1.601,2.812 -1.679,2.812L-1.984,2.812C-2.07,2.812 -2.132,2.741 -2.132,2.663L-2.132,-2.508Z" style="fill:rgb(63,31,32);fill-rule:nonzero;"/>
    </g>
    <g transform="matrix(2.66667,0,0,2.66667,141.541,209.793)">
        <path d="M0,3.828C0.039,3.781 0.078,3.727 0.117,3.68C0.195,3.578 0.281,3.516 0.391,3.609C0.445,3.656 1.015,4.203 1.711,4.203C2.343,4.203 2.757,3.805 2.757,3.344C2.757,2.805 2.289,2.485 1.39,2.11C0.531,1.735 0.016,1.383 0.016,0.493C0.016,-0.038 0.437,-0.898 1.679,-0.898C2.445,-0.898 3.015,-0.499 3.015,-0.499C3.062,-0.476 3.156,-0.382 3.062,-0.234C3.031,-0.187 3,-0.132 2.968,-0.085C2.898,0.024 2.82,0.055 2.695,-0.015C2.64,-0.046 2.148,-0.374 1.672,-0.374C0.844,-0.374 0.594,0.157 0.594,0.485C0.594,1.008 0.992,1.313 1.648,1.586C2.703,2.016 3.382,2.414 3.382,3.32C3.382,4.133 2.609,4.726 1.695,4.726C0.773,4.726 0.148,4.187 0.047,4.094C-0.016,4.039 -0.094,3.977 0,3.828" style="fill:rgb(63,31,32);fill-rule:nonzero;"/>
    </g>
    <g transform="matrix(2.66667,0,0,2.66667,161.243,208.859)">
        <path d="M0,4.53C1.242,4.53 2.265,3.515 2.265,2.273C2.265,1.031 1.242,-0 0,-0C-1.242,-0 -2.257,1.031 -2.257,2.273C-2.257,3.515 -1.242,4.53 0,4.53M0,-0.547C1.562,-0.547 2.812,0.71 2.812,2.273C2.812,3.835 1.562,5.077 0,5.077C-1.562,5.077 -2.804,3.835 -2.804,2.273C-2.804,0.71 -1.562,-0.547 0,-0.547" style="fill:rgb(63,31,32);fill-rule:nonzero;"/>
    </g>
    <g transform="matrix(2.66667,0,0,2.66667,173.177,222.02)">
        <path d="M0,-5.342C0,-5.42 0.07,-5.483 0.148,-5.483L0.344,-5.483L3.867,-1.093L3.882,-1.093L3.882,-5.256C3.882,-5.334 3.945,-5.405 4.031,-5.405L4.304,-5.405C4.382,-5.405 4.452,-5.334 4.452,-5.256L4.452,0.001C4.452,0.079 4.382,0.141 4.304,0.141L4.163,0.141L0.578,-4.334L0.57,-4.334L0.57,-0.085C0.57,-0.007 0.508,0.063 0.422,0.063L0.148,0.063C0.07,0.063 0,-0.007 0,-0.085L0,-5.342Z" style="fill:rgb(63,31,32);fill-rule:nonzero;"/>
    </g>
    <g transform="matrix(2.66667,0,0,2.66667,198.44,212.357)">
        <path d="M0,1.828C-0.383,0.977 -0.758,0.117 -1.14,-0.734L-1.203,-0.734L-2.343,1.828L0,1.828ZM-3.71,3.484L-1.336,-1.773C-1.312,-1.82 -1.273,-1.859 -1.203,-1.859L-1.125,-1.859C-1.054,-1.859 -1.015,-1.82 -0.992,-1.773L1.367,3.484C1.414,3.586 1.351,3.687 1.234,3.687L0.922,3.687C0.851,3.687 0.805,3.64 0.789,3.601L0.211,2.312L-2.562,2.312L-3.132,3.601C-3.148,3.64 -3.195,3.687 -3.265,3.687L-3.577,3.687C-3.695,3.687 -3.757,3.586 -3.71,3.484" style="fill:rgb(63,31,32);fill-rule:nonzero;"/>
    </g>
    <g transform="matrix(2.66667,0,0,2.66667,205.603,221.795)">
        <path d="M0,-5.172C0,-5.25 0.062,-5.32 0.148,-5.32L0.453,-5.32C0.531,-5.32 0.601,-5.25 0.601,-5.172L0.601,-0.376L2.851,-0.376C2.937,-0.376 3,-0.306 3,-0.227L3,-0.001C3,0.077 2.937,0.148 2.851,0.148L0.148,0.148C0.062,0.148 0,0.077 0,-0.001L0,-5.172Z" style="fill:rgb(63,31,32);fill-rule:nonzero;"/>
    </g>
    <g transform="matrix(2.66667,0,0,2.66667,217.079,221.795)">
        <path d="M0,-5.172C0,-5.25 0.07,-5.32 0.148,-5.32L0.461,-5.32C0.539,-5.32 0.609,-5.25 0.609,-5.172L0.609,-0.001C0.609,0.077 0.539,0.148 0.461,0.148L0.148,0.148C0.07,0.148 0,0.077 0,-0.001L0,-5.172Z" style="fill:rgb(63,31,32);fill-rule:nonzero;"/>
    </g>
    <g transform="matrix(2.66667,0,0,2.66667,222.702,208.378)">
        <path d="M0,4.89L2.836,0.281L2.836,0.258L0.375,0.258C0.297,0.258 0.227,0.188 0.227,0.109L0.227,-0.141C0.227,-0.219 0.297,-0.289 0.375,-0.289L3.538,-0.289C3.617,-0.289 3.687,-0.219 3.687,-0.141L3.687,-0.039L0.805,4.624L0.805,4.632L3.382,4.632C3.468,4.632 3.531,4.702 3.531,4.781L3.531,5.031C3.531,5.109 3.468,5.179 3.382,5.179L0.148,5.179C0.07,5.179 0,5.109 0,5.031L0,4.89Z" style="fill:rgb(63,31,32);fill-rule:nonzero;"/>
    </g>
    <g transform="matrix(2.66667,0,0,2.66667,244.467,212.357)">
        <path d="M0,1.828C-0.383,0.977 -0.758,0.117 -1.14,-0.734L-1.203,-0.734L-2.343,1.828L0,1.828ZM-3.71,3.484L-1.336,-1.773C-1.312,-1.82 -1.273,-1.859 -1.203,-1.859L-1.125,-1.859C-1.054,-1.859 -1.015,-1.82 -0.992,-1.773L1.367,3.484C1.414,3.586 1.351,3.687 1.234,3.687L0.922,3.687C0.851,3.687 0.805,3.64 0.789,3.601L0.211,2.312L-2.562,2.312L-3.132,3.601C-3.148,3.64 -3.195,3.687 -3.265,3.687L-3.577,3.687C-3.695,3.687 -3.757,3.586 -3.71,3.484" style="fill:rgb(63,31,32);fill-rule:nonzero;"/>
    </g>
    <g transform="matrix(2.66667,0,0,2.66667,256.338,209.045)">
        <path d="M0,4.39C1.281,4.39 2.21,3.476 2.21,2.187C2.21,0.906 1.281,-0.008 0,-0.008L-1.172,-0.008L-1.172,4.39L0,4.39ZM-1.765,-0.391C-1.765,-0.469 -1.703,-0.539 -1.625,-0.539L0.125,-0.539C1.633,-0.539 2.867,0.687 2.867,2.187C2.867,3.703 1.633,4.929 0.125,4.929L-1.625,4.929C-1.703,4.929 -1.765,4.859 -1.765,4.781L-1.765,-0.391Z" style="fill:rgb(63,31,32);fill-rule:nonzero;"/>
    </g>
    <g transform="matrix(2.66667,0,0,2.66667,276.249,212.357)">
        <path d="M0,1.828C-0.383,0.977 -0.758,0.117 -1.14,-0.734L-1.203,-0.734L-2.343,1.828L0,1.828ZM-3.71,3.484L-1.336,-1.773C-1.312,-1.82 -1.273,-1.859 -1.203,-1.859L-1.125,-1.859C-1.054,-1.859 -1.015,-1.82 -0.992,-1.773L1.367,3.484C1.414,3.586 1.351,3.687 1.234,3.687L0.922,3.687C0.851,3.687 0.805,3.64 0.789,3.601L0.211,2.312L-2.562,2.312L-3.132,3.601C-3.148,3.64 -3.195,3.687 -3.265,3.687L-3.577,3.687C-3.695,3.687 -3.757,3.586 -3.71,3.484" style="fill:rgb(63,31,32);fill-rule:nonzero;"/>
    </g>
    <g transform="matrix(2.66667,0,0,2.66667,13.728,174.382)">
        <path d="M0,-2.05C0.882,-2.05 1.62,-2.747 1.62,-3.67C1.62,-4.532 0.882,-5.188 0,-5.188L-1.948,-5.188L-1.948,-2.05L0,-2.05ZM-5.148,-7.813C-5.148,-8.018 -4.984,-8.203 -4.758,-8.203L0.185,-8.203C2.707,-8.203 4.778,-6.152 4.778,-3.67C4.778,-1.127 2.707,0.944 0.205,0.944L-1.948,0.944L-1.948,5.763C-1.948,5.969 -2.133,6.153 -2.338,6.153L-4.758,6.153C-4.984,6.153 -5.148,5.969 -5.148,5.763L-5.148,-7.813Z" style="fill:rgb(63,31,32);fill-rule:nonzero;"/>
    </g>
    <g transform="matrix(2.66667,0,0,2.66667,33.8531,190.297)">
        <path d="M0,-13.781C0,-13.986 0.185,-14.171 0.389,-14.171L2.912,-14.171C3.138,-14.171 3.302,-13.986 3.302,-13.781L3.302,-5.475C3.302,-4.04 4.368,-2.891 5.824,-2.891C7.301,-2.891 8.388,-4.04 8.388,-5.475L8.388,-13.781C8.388,-13.986 8.552,-14.171 8.777,-14.171L11.3,-14.171C11.505,-14.171 11.689,-13.986 11.689,-13.781L11.689,-5.311C11.689,-2.194 9.064,0.39 5.824,0.39C2.604,0.39 0,-2.194 0,-5.311L0,-13.781Z" style="fill:rgb(63,31,32);fill-rule:nonzero;"/>
    </g>
    <g transform="matrix(2.66667,0,0,2.66667,92.6971,174.439)">
        <path d="M0,-2.092C0.841,-2.092 1.559,-2.871 1.559,-3.733C1.559,-4.594 0.841,-5.291 0,-5.291L-3.035,-5.291L-3.035,-2.092L0,-2.092ZM-6.255,-7.834C-6.255,-8.039 -6.091,-8.224 -5.865,-8.224L0.267,-8.224C2.728,-8.224 4.737,-6.235 4.737,-3.794C4.737,-1.907 3.486,-0.39 1.702,0.328L4.512,5.537C4.655,5.804 4.512,6.132 4.163,6.132L1.436,6.132C1.272,6.132 1.148,6.029 1.108,5.947L-1.62,0.512L-3.035,0.512L-3.035,5.742C-3.035,5.947 -3.22,6.132 -3.425,6.132L-5.865,6.132C-6.091,6.132 -6.255,5.947 -6.255,5.742L-6.255,-7.834Z" style="fill:rgb(63,31,32);fill-rule:nonzero;"/>
    </g>
    <g transform="matrix(2.66667,0,0,2.66667,114.846,189.751)">
        <path d="M0,-13.576C0,-13.781 0.185,-13.966 0.39,-13.966L2.851,-13.966C3.056,-13.966 3.24,-13.781 3.24,-13.576L3.24,0C3.24,0.205 3.056,0.39 2.851,0.39L0.39,0.39C0.185,0.39 0,0.205 0,0L0,-13.576Z" style="fill:rgb(63,31,32);fill-rule:nonzero;"/>
    </g>
    <g transform="matrix(2.66667,0,0,2.66667,132.893,157.705)">
        <path d="M0,10.459L0.964,8.757C1.128,8.49 1.518,8.531 1.661,8.634C1.743,8.675 3.22,9.762 4.573,9.762C5.394,9.762 5.988,9.249 5.988,8.531C5.988,7.67 5.271,7.014 3.876,6.46C2.112,5.763 -0.102,4.389 -0.102,1.928C-0.102,-0.103 1.477,-2.153 4.635,-2.153C6.767,-2.153 8.408,-1.067 9.024,-0.615C9.269,-0.472 9.229,-0.103 9.146,0.041L8.101,1.62C7.957,1.846 7.588,2.03 7.403,1.887C7.219,1.784 5.722,0.656 4.471,0.656C3.732,0.656 3.179,1.148 3.179,1.702C3.179,2.461 3.794,3.035 5.414,3.691C7.014,4.327 9.557,5.578 9.557,8.367C9.557,10.48 7.732,12.612 4.717,12.612C2.051,12.612 0.574,11.505 0.102,11.033C-0.102,10.828 -0.164,10.746 0,10.459" style="fill:rgb(63,31,32);fill-rule:nonzero;"/>
    </g>
    <g transform="matrix(2.66667,0,0,2.66667,165.048,157.705)">
        <path d="M0,10.459L0.964,8.757C1.128,8.49 1.518,8.531 1.661,8.634C1.743,8.675 3.22,9.762 4.573,9.762C5.394,9.762 5.988,9.249 5.988,8.531C5.988,7.67 5.271,7.014 3.876,6.46C2.112,5.763 -0.102,4.389 -0.102,1.928C-0.102,-0.103 1.477,-2.153 4.635,-2.153C6.768,-2.153 8.408,-1.067 9.024,-0.615C9.27,-0.472 9.229,-0.103 9.147,0.041L8.101,1.62C7.957,1.846 7.588,2.03 7.403,1.887C7.219,1.784 5.722,0.656 4.471,0.656C3.732,0.656 3.179,1.148 3.179,1.702C3.179,2.461 3.794,3.035 5.414,3.691C7.014,4.327 9.557,5.578 9.557,8.367C9.557,10.48 7.732,12.612 4.717,12.612C2.051,12.612 0.574,11.505 0.103,11.033C-0.102,10.828 -0.164,10.746 0,10.459" style="fill:rgb(63,31,32);fill-rule:nonzero;"/>
    </g>
    <g transform="matrix(2.66667,0,0,2.66667,199.393,189.751)">
        <path d="M0,-13.576C0,-13.781 0.185,-13.966 0.39,-13.966L2.851,-13.966C3.056,-13.966 3.24,-13.781 3.24,-13.576L3.24,0C3.24,0.205 3.056,0.39 2.851,0.39L0.39,0.39C0.185,0.39 0,0.205 0,0L0,-13.576Z" style="fill:rgb(63,31,32);fill-rule:nonzero;"/>
    </g>
    <g transform="matrix(2.66667,0,0,2.66667,223.4,190.464)">
        <path d="M0,-14.11C0.02,-14.295 0.205,-14.438 0.369,-14.438L0.697,-14.438C0.8,-14.438 0.984,-14.356 1.046,-14.233L5.804,-5.374L5.845,-5.374L10.603,-14.233C10.664,-14.356 10.848,-14.438 10.951,-14.438L11.279,-14.438C11.443,-14.438 11.628,-14.295 11.649,-14.11L13.966,-0.329C14.007,-0.062 13.822,0.122 13.576,0.122L11.156,0.122C10.972,0.122 10.787,-0.042 10.767,-0.206L9.844,-6.542L9.803,-6.542L6.357,0.102C6.296,0.225 6.111,0.328 6.009,0.328L5.64,0.328C5.517,0.328 5.352,0.225 5.291,0.102L1.825,-6.542L1.784,-6.542L0.882,-0.206C0.861,-0.042 0.697,0.122 0.492,0.122L-1.928,0.122C-2.174,0.122 -2.359,-0.062 -2.317,-0.329L0,-14.11Z" style="fill:rgb(63,31,32);fill-rule:nonzero;"/>
    </g>
    <g transform="matrix(2.66667,0,0,2.66667,287.385,165.087)">
        <path d="M0,4.717L-1.558,1.333L-1.579,1.333L-3.117,4.717L0,4.717ZM-8.429,9.106L-2.01,-4.696C-1.948,-4.819 -1.805,-4.922 -1.661,-4.922L-1.456,-4.922C-1.312,-4.922 -1.169,-4.819 -1.107,-4.696L5.312,9.106C5.435,9.372 5.271,9.639 4.963,9.639L2.687,9.639C2.317,9.639 2.153,9.516 1.969,9.126L1.231,7.506L-4.348,7.506L-5.086,9.147C-5.188,9.393 -5.414,9.639 -5.824,9.639L-8.08,9.639C-8.388,9.639 -8.552,9.372 -8.429,9.106" style="fill:rgb(63,31,32);fill-rule:nonzero;"/>
    </g>
</svg>
