<?xml version="1.0" encoding="UTF-8"?>
<svg id="Layer_2" data-name="Layer 2" xmlns="http://www.w3.org/2000/svg" viewBox="0 0 81.02 7.01">
  <defs>
  </defs>
  <g id="FACA">
    <g>
      <g>
        <path fill="#a06016" d="M35.09,1.5c.43,0,.77.16,1.03.49.26.33.4.82.4,1.46,0,.43-.06.79-.18,1.08-.12.29-.29.51-.51.66-.22.15-.47.22-.75.22-.18,0-.34-.02-.47-.07-.13-.05-.24-.11-.33-.18-.09-.07-.17-.15-.24-.23h-.05c.02.09.03.18.04.28s.01.19.01.28v1.52s-1.03,0-1.03,0V1.58s.83,0,.83,0l.15.49h.05c.07-.1.15-.2.25-.28.1-.09.21-.16.35-.21.14-.05.29-.08.47-.08ZM34.76,2.32c-.18,0-.32.04-.43.11-.11.08-.18.19-.23.33-.05.15-.08.34-.08.56v.11c0,.24.02.45.07.62.05.17.12.3.23.38.11.09.26.13.45.13.16,0,.29-.04.39-.13.1-.09.18-.22.23-.39.05-.17.08-.38.07-.62,0-.37-.06-.65-.17-.83-.11-.19-.29-.28-.53-.28Z"/>
        <path fill="#a06016" d="M40.69,1.56v3.78s-.78,0-.78,0l-.14-.48h-.05c-.08.13-.18.23-.3.32s-.25.14-.4.18c-.15.04-.3.06-.46.06-.27,0-.51-.05-.71-.14-.2-.1-.36-.24-.47-.45-.11-.2-.17-.47-.17-.79V1.56s1.02,0,1.02,0v2.21c0,.27.05.47.15.61.1.14.25.21.46.21.21,0,.37-.05.49-.14s.2-.24.25-.42c.05-.19.07-.41.07-.68v-1.78s1.03,0,1.03,0Z"/>
        <path fill="#a06016" d="M43.74,1.48c.05,0,.11,0,.18,0,.07,0,.12.01.17.02l-.08.97s-.08-.02-.14-.03c-.06,0-.12,0-.16,0-.13,0-.26.02-.39.05-.12.04-.24.09-.34.17s-.18.18-.23.3c-.06.12-.09.27-.09.45v1.92s-1.03,0-1.03,0V1.55s.77,0,.77,0l.15.63h.05c.07-.13.17-.25.28-.35.11-.11.24-.19.38-.26.14-.06.3-.1.46-.1Z"/>
        <path fill="#a06016" d="M45.15.07c.15,0,.28.04.39.11.11.07.17.2.17.4,0,.19-.05.32-.17.4s-.24.11-.39.11c-.16,0-.29-.04-.4-.11s-.16-.21-.17-.4c0-.19.05-.33.16-.4.11-.07.24-.11.4-.11ZM45.67,1.55v3.78s-1.02,0-1.02,0V1.55s1.02,0,1.02,0Z"/>
        <path fill="#a06016" d="M49.25,4.19c0,.26-.06.47-.18.65-.12.18-.3.31-.54.4-.24.09-.54.14-.89.14-.26,0-.49-.02-.68-.05-.19-.03-.38-.09-.57-.17v-.85c.2.09.42.17.66.23.24.06.44.09.62.09.2,0,.34-.03.43-.09.09-.06.13-.14.13-.24,0-.06-.02-.12-.05-.17-.04-.05-.11-.11-.22-.17-.12-.06-.3-.15-.54-.25-.24-.1-.43-.2-.58-.3-.15-.1-.26-.22-.34-.36-.07-.14-.11-.31-.11-.53,0-.35.13-.61.41-.79.27-.18.63-.27,1.09-.27.23,0,.46.02.67.07.21.05.43.12.66.23l-.31.74c-.19-.08-.36-.15-.53-.2s-.33-.08-.51-.08c-.15,0-.26.02-.34.06-.08.04-.12.1-.12.19,0,.06.02.11.06.16.04.05.12.1.23.16.11.06.28.13.5.22.21.09.4.18.56.27.16.1.28.21.37.35.08.14.13.32.13.55Z"/>
        <path fill="#a06016" d="M52.55,4.18c0,.26-.06.47-.18.65-.12.18-.3.31-.54.4-.24.09-.54.14-.89.14-.26,0-.49-.02-.68-.05-.19-.03-.38-.09-.57-.17v-.85c.2.09.42.17.66.23s.44.09.62.09c.2,0,.34-.03.43-.09.09-.06.13-.14.13-.23,0-.06-.02-.12-.05-.17-.04-.05-.11-.11-.22-.17-.12-.06-.3-.15-.54-.25-.24-.1-.43-.2-.58-.3-.15-.1-.26-.22-.34-.36-.07-.14-.11-.31-.11-.53,0-.35.13-.61.41-.79.27-.18.63-.27,1.09-.27.23,0,.46.02.67.07.21.05.43.12.66.23l-.31.74c-.19-.08-.36-.15-.53-.2-.17-.05-.33-.08-.51-.08-.15,0-.26.02-.34.06-.08.04-.12.1-.12.19,0,.06.02.11.06.16.04.05.12.1.23.16.11.06.28.13.5.22.21.09.4.18.56.27.16.09.28.21.37.35.08.14.13.32.13.55Z"/>
        <path fill="#a06016" d="M53.72.05c.15,0,.28.04.39.11.11.07.17.2.17.4,0,.19-.05.32-.17.4s-.24.11-.39.11c-.16,0-.29-.04-.4-.11-.11-.07-.16-.21-.17-.4,0-.19.05-.33.16-.4s.24-.11.4-.11ZM54.24,1.52v3.78s-1.02,0-1.02,0V1.53s1.02,0,1.02,0Z"/>
        <path fill="#a06016" d="M59.62,1.44c.43,0,.75.11.97.33.22.22.33.57.33,1.05v2.46s-1.03,0-1.03,0v-2.21c0-.27-.05-.47-.15-.61-.09-.14-.24-.21-.43-.21-.27,0-.47.1-.58.29-.11.2-.17.47-.17.84v1.89s-1.03,0-1.03,0v-2.21c0-.18-.03-.33-.07-.45-.04-.12-.1-.21-.19-.27s-.19-.09-.32-.09c-.19,0-.34.05-.45.14s-.19.24-.23.42c-.05.19-.07.41-.07.68v1.78s-1.03,0-1.03,0V1.52s.78,0,.78,0l.14.48h.06c.08-.13.17-.24.29-.32.12-.08.24-.14.38-.18.14-.04.28-.06.42-.06.28,0,.51.04.71.13.19.09.34.23.45.42h.09c.11-.19.27-.34.48-.42.21-.09.42-.13.64-.13Z"/>
        <path fill="#a06016" d="M63.38,1.43c.51,0,.9.11,1.17.33s.41.55.41,1v2.52s-.71,0-.71,0l-.2-.51h-.03c-.11.14-.22.25-.33.33-.11.09-.24.15-.39.19s-.32.06-.53.06c-.22,0-.42-.04-.6-.13-.18-.09-.32-.22-.42-.39-.1-.18-.15-.4-.15-.67,0-.4.14-.7.42-.89.28-.19.7-.3,1.27-.32l.66-.02v-.17c0-.2-.05-.34-.16-.44-.1-.09-.25-.14-.43-.14-.18,0-.36.03-.54.08-.18.05-.35.12-.53.2l-.34-.69c.2-.11.42-.19.67-.25s.5-.09.77-.09ZM63.94,3.53h-.4c-.33.02-.57.08-.69.2-.13.11-.19.26-.19.44,0,.16.05.27.14.33.09.07.21.1.36.1.22,0,.41-.07.56-.2.15-.13.23-.32.23-.56v-.31Z"/>
        <path fill="#a06016" d="M65.74,4.79c0-.21.06-.36.17-.45.12-.09.25-.13.42-.13.16,0,.3.04.42.13.12.08.17.23.17.44,0,.2-.06.35-.17.44-.12.09-.25.13-.41.14-.16,0-.3-.04-.42-.13s-.17-.24-.17-.44Z"/>
        <path fill="#a06016" d="M69.25,5.33c-.37,0-.69-.07-.96-.2-.26-.14-.46-.35-.6-.63-.14-.28-.21-.65-.21-1.1,0-.46.08-.84.23-1.13.16-.29.37-.51.65-.64s.6-.21.97-.21c.26,0,.49.02.68.07.19.05.36.11.5.18l-.3.8c-.16-.06-.31-.12-.45-.16-.14-.04-.28-.06-.42-.06-.18,0-.33.04-.45.13-.12.09-.21.21-.27.38-.06.17-.09.38-.09.63,0,.25.03.46.1.62.06.16.16.29.27.37.12.08.26.12.44.12.21,0,.4-.03.57-.09.17-.06.33-.14.49-.24v.88c-.16.1-.32.17-.49.22s-.39.07-.65.07Z"/>
        <path fill="#a06016" d="M74.56,3.36c0,.32-.04.59-.12.84s-.21.45-.37.62c-.16.17-.35.29-.58.38s-.48.13-.77.13c-.27,0-.51-.04-.73-.13-.22-.09-.42-.21-.58-.38-.16-.17-.29-.37-.38-.62-.09-.24-.13-.52-.14-.84,0-.42.07-.77.22-1.07.15-.29.36-.51.63-.66.27-.15.6-.23.98-.23.35,0,.67.07.94.22.27.15.49.37.65.66.16.29.24.65.24,1.06ZM71.95,3.36c0,.25.03.46.08.62.05.17.14.29.25.38.12.09.26.13.45.13s.33-.04.44-.13c.11-.08.2-.21.25-.38.05-.17.08-.38.08-.62,0-.25-.03-.46-.08-.62-.05-.17-.14-.29-.25-.37-.11-.08-.26-.12-.45-.12-.27,0-.47.09-.59.28-.12.19-.18.47-.18.84Z"/>
        <path fill="#a06016" d="M79.71,1.39c.43,0,.75.11.97.33.22.22.33.57.33,1.05v2.46s-1.03,0-1.03,0v-2.21c0-.27-.05-.47-.15-.61-.09-.14-.24-.21-.43-.21-.27,0-.47.1-.58.29-.11.19-.17.47-.17.84v1.89s-1.03,0-1.03,0v-2.21c0-.18-.03-.33-.07-.45-.04-.12-.1-.21-.19-.27-.08-.06-.19-.09-.32-.09-.19,0-.34.05-.45.15-.11.1-.19.24-.23.42-.05.19-.07.41-.07.68v1.78s-1.03,0-1.03,0V1.47s.78,0,.78,0l.14.48h.06c.08-.13.17-.24.29-.32.12-.08.24-.14.38-.18s.28-.06.42-.06c.28,0,.51.04.71.13.19.09.34.23.45.42h.09c.11-.2.27-.34.48-.42.21-.09.42-.13.64-.13Z"/>
      </g>
      <path fill="#a06016" d="M18.77.02h-2.87c-.86,0-1.56.73-1.56,1.61v2.92c0,.88.71,1.6,1.58,1.59h2.87c.86,0,1.56-.73,1.56-1.61V1.61c0-.88-.71-1.6-1.58-1.59ZM19.27,3.6c0,.49-.38.88-.86.88h-2.13c-.48,0-.86-.39-.86-.87v-1.06c0-.49.38-.88.86-.88h2.13c.48,0,.86.39.86.87v1.06Z"/>
      <path fill="#a06016" d="M21.57,4.53c0,.88.71,1.6,1.57,1.59h2.87c.86,0,1.56-.73,1.56-1.61V1.59C27.55.71,26.85,0,25.98,0h-2.87c-.86,0-1.56.73-1.56,1.61v2.92ZM23.17,2.71c.26-.27.62-.43,1-.43v.68c-.19,0-.37.08-.51.22-.13.14-.2.32-.2.52.01.29.2.54.46.63.07.03.14.04.22.04.2,0,.38-.06.52-.2.14-.14.22-.32.22-.51V1.05s.67,0,.67,0c0,.04,0,.09.01.13.05.29.24.53.51.63.1.04.2.06.31.06h.05s0,.68,0,.68h-.05c-.3,0-.59-.09-.83-.25v1.36c0,.38-.15.73-.42,1-.26.25-.6.39-.96.39-.02,0-.04,0-.05,0-.19,0-.38-.05-.54-.13-.45-.22-.77-.67-.79-1.19-.02-.38.12-.74.38-1.02Z"/>
      <path fill="#a06016" d="M16.93,2.44v.65s0,.65,0,.65l.52-.32.52-.32-.52-.32-.52-.32Z"/>
      <path fill="#a06016" d="M3,2.34c-.42,0-.76.35-.76.77s.34.77.76.77.76-.35.76-.77-.34-.77-.76-.77Z"/>
      <path fill="#a06016" d="M4.05,1.24H1.94c-.43,0-.77.36-.77.8v2.16c0,.44.36.79.78.79h2.11c.43,0,.77-.36.77-.8v-2.16c0-.44-.36-.79-.78-.79ZM3,4.27c-.63,0-1.14-.52-1.14-1.16s.51-1.16,1.13-1.16,1.14.52,1.14,1.16-.51,1.16-1.13,1.16ZM4.17,2.17c-.14,0-.26-.12-.26-.27s.12-.27.26-.27.26.12.26.27-.12.27-.26.27Z"/>
      <path fill="#a06016" d="M4.5.05H1.49C.67.06,0,.75,0,1.59v3.07c0,.84.68,1.52,1.51,1.52h3.01c.83,0,1.49-.69,1.49-1.54V1.57c0-.84-.68-1.52-1.51-1.52ZM5.21,4.19c0,.65-.51,1.18-1.15,1.18H1.95c-.64,0-1.15-.52-1.16-1.17v-2.16c0-.65.51-1.18,1.15-1.18h2.11c.64,0,1.15.52,1.16,1.17v2.16Z"/>
      <path fill="#a06016" d="M11.57.03h-2.87c-.86,0-1.56.73-1.56,1.61v2.92c0,.88.71,1.6,1.58,1.59h.89s0-2.16,0-2.16h-.78s0-.92,0-.92h.78s0-.81,0-.81c0-.62.49-1.12,1.1-1.13h.77s0,.88,0,.88h-.54c-.21,0-.38.18-.38.39v.65s.85,0,.85,0l-.13.92h-.71s0,2.17,0,2.17h1.03c.86,0,1.56-.72,1.56-1.6V1.63c0-.88-.71-1.6-1.58-1.59Z"/>
    </g>
  </g>
</svg>